<svg width="24" height="24" viewBox="0 0 24 24" fill="none" xmlns="http://www.w3.org/2000/svg">
<path d="M13.881 11.9997L19.6172 6.27683C19.8684 6.02564 20.0095 5.68494 20.0095 5.32969C20.0095 4.97445 19.8684 4.63375 19.6172 4.38255C19.366 4.13136 19.0253 3.99023 18.67 3.99023C18.3148 3.99023 17.9741 4.13136 17.7229 4.38255L12 10.1188L6.27716 4.38255C6.02596 4.13136 5.68526 3.99023 5.33002 3.99023C4.97477 3.99023 4.63407 4.13136 4.38288 4.38255C4.13168 4.63375 3.99056 4.97445 3.99056 5.32969C3.99056 5.68494 4.13168 6.02564 4.38288 6.27683L10.1191 11.9997L4.38288 17.7226C4.25784 17.8466 4.1586 17.9941 4.09088 18.1567C4.02315 18.3192 3.98828 18.4936 3.98828 18.6697C3.98828 18.8458 4.02315 19.0202 4.09088 19.1827C4.1586 19.3453 4.25784 19.4928 4.38288 19.6168C4.50689 19.7419 4.65443 19.8411 4.81699 19.9088C4.97955 19.9766 5.15391 20.0114 5.33002 20.0114C5.50612 20.0114 5.68048 19.9766 5.84304 19.9088C6.0056 19.8411 6.15314 19.7419 6.27716 19.6168L12 13.8806L17.7229 19.6168C17.8469 19.7419 17.9944 19.8411 18.157 19.9088C18.3196 19.9766 18.4939 20.0114 18.67 20.0114C18.8461 20.0114 19.0205 19.9766 19.183 19.9088C19.3456 19.8411 19.4931 19.7419 19.6172 19.6168C19.7422 19.4928 19.8414 19.3453 19.9092 19.1827C19.9769 19.0202 20.0118 18.8458 20.0118 18.6697C20.0118 18.4936 19.9769 18.3192 19.9092 18.1567C19.8414 17.9941 19.7422 17.8466 19.6172 17.7226L13.881 11.9997Z" fill="white"/>
</svg>
